<svg xmlns="http://www.w3.org/2000/svg" fill="none" class="h-6 w-6" viewBox="0 0 32 32"><path fill="currentColor" fill-rule="evenodd" d="M8.3 5a1.1 1.1 0 0 1 1.1 1.1v1.1h1.1a1.1 1.1 0 0 1 0 2.2H9.4v1.1a1.1 1.1 0 0 1-2.2 0V9.4H6.1a1.1 1.1 0 0 1 0-2.2h1.1V6.1A1.1 1.1 0 0 1 8.3 5Zm8.8 0a1.1 1.1 0 0 1 1.043.752l2.35 7.045 5.793 2.173a1.1 1.1 0 0 1 0 2.06l-5.794 2.173-2.349 7.045a1.1 1.1 0 0 1-2.087 0l-2.348-7.045-5.794-2.173a1.1 1.1 0 0 1 0-2.06l5.794-2.173 2.348-7.045A1.1 1.1 0 0 1 17.1 5ZM9.4 20.4a1.1 1.1 0 0 1 1.1 1.1v1.1h1.1a1.1 1.1 0 0 1 0 2.2h-1.1v1.1a1.1 1.1 0 0 1-2.2 0v-1.1H7.2a1.1 1.1 0 0 1 0-2.2h1.1v-1.1a1.1 1.1 0 0 1 1.1-1.1Z" clip-rule="evenodd"/></svg>